<?xml version="1.0" encoding="UTF-8" standalone="no"?>
<!-- Created with Inkscape (http://www.inkscape.org/) -->

<svg
   width="235.16055mm"
   height="166.68748mm"
   viewBox="0 0 235.16055 166.68748"
   version="1.1"
   id="svg5"
   xml:space="preserve"
   inkscape:version="1.2.2 (b0a8486541, 2022-12-01)"
   sodipodi:docname="12+.svg"
   xmlns:inkscape="http://www.inkscape.org/namespaces/inkscape"
   xmlns:sodipodi="http://sodipodi.sourceforge.net/DTD/sodipodi-0.dtd"
   xmlns:xlink="http://www.w3.org/1999/xlink"
   xmlns="http://www.w3.org/2000/svg"
   xmlns:svg="http://www.w3.org/2000/svg"><sodipodi:namedview
     id="namedview7"
     pagecolor="#ffffff"
     bordercolor="#000000"
     borderopacity="0.25"
     inkscape:showpageshadow="2"
     inkscape:pageopacity="0.0"
     inkscape:pagecheckerboard="0"
     inkscape:deskcolor="#d1d1d1"
     inkscape:document-units="mm"
     showgrid="false"
     inkscape:zoom="0.40945332"
     inkscape:cx="783.97216"
     inkscape:cy="438.38942"
     inkscape:window-width="1600"
     inkscape:window-height="830"
     inkscape:window-x="0"
     inkscape:window-y="0"
     inkscape:window-maximized="1"
     inkscape:current-layer="layer1" /><defs
     id="defs2"><linearGradient
       inkscape:collect="always"
       id="linearGradient35726"><stop
         style="stop-color:#cec8dd;stop-opacity:1;"
         offset="0"
         id="stop35722" /><stop
         style="stop-color:#cec8dd;stop-opacity:0.17406216;"
         offset="1"
         id="stop35724" /></linearGradient><linearGradient
       inkscape:collect="always"
       id="linearGradient18053"><stop
         style="stop-color:#2f2441;stop-opacity:1;"
         offset="0"
         id="stop18049" /><stop
         style="stop-color:#2f2441;stop-opacity:0;"
         offset="1"
         id="stop18051" /></linearGradient><linearGradient
       inkscape:collect="always"
       id="linearGradient6023"><stop
         style="stop-color:#eae8f1;stop-opacity:1;"
         offset="0"
         id="stop6019" /><stop
         style="stop-color:#eae8f1;stop-opacity:1;"
         offset="1"
         id="stop6021" /></linearGradient><linearGradient
       id="logoPlus_svg__a"
       x1="200.99001"
       y1="22.969999"
       x2="200.99001"
       y2="60.52"
       gradientUnits="userSpaceOnUse"
       gradientTransform="translate(-2.2484527,-1.4989685)"><stop
         offset="0"
         stop-color="#e21329"
         id="stop2" /><stop
         offset="1"
         stop-color="#f46a0b"
         id="stop4" /></linearGradient><linearGradient
       id="logoPlus_svg__b"
       x1="200.99001"
       y1="112.16"
       x2="200.99001"
       y2="74.599998"
       gradientUnits="userSpaceOnUse"
       gradientTransform="translate(-2.2484527,-1.4989685)"><stop
         offset="0"
         stop-color="#23cd5b"
         id="stop7" /><stop
         offset="1"
         stop-color="#35c8c6"
         id="stop9" /></linearGradient><linearGradient
       id="logoPlus_svg__c"
       x1="157.17999"
       y1="67.559998"
       x2="194.73"
       y2="67.559998"
       gradientTransform="rotate(90,2.6231947,-0.37474211)"
       gradientUnits="userSpaceOnUse"><stop
         offset="0.12"
         stop-color="#8151f2"
         id="stop12" /><stop
         offset="0.89"
         stop-color="#409eff"
         id="stop14" /></linearGradient><linearGradient
       id="logoPlus_svg__d"
       x1="208.03"
       y1="67.559998"
       x2="245.59"
       y2="67.559998"
       gradientTransform="translate(-2.9979368,-2.2484526)"
       gradientUnits="userSpaceOnUse"><stop
         offset="0"
         stop-color="#f8d332"
         id="stop17" /><stop
         offset="1"
         stop-color="#f78b0c"
         id="stop19" /></linearGradient><linearGradient
       inkscape:collect="always"
       xlink:href="#linearGradient6023"
       id="linearGradient6025"
       x1="150.70464"
       y1="4.2109971"
       x2="5.4857388"
       y2="127.90448"
       gradientUnits="userSpaceOnUse" /><linearGradient
       inkscape:collect="always"
       xlink:href="#linearGradient18053"
       id="linearGradient19996"
       x1="168.32468"
       y1="118.46495"
       x2="106.85454"
       y2="32.66235"
       gradientUnits="userSpaceOnUse" /><linearGradient
       inkscape:collect="always"
       xlink:href="#linearGradient18053"
       id="linearGradient20056"
       gradientUnits="userSpaceOnUse"
       x1="4.4827371"
       y1="112.72642"
       x2="68.690643"
       y2="17.521576" /><filter
       inkscape:label="Blur Double"
       inkscape:menu="Blurs"
       inkscape:menu-tooltip="Overlays two copies with different blur amounts and modifiable blend and composite"
       style="color-interpolation-filters:sRGB"
       id="filter22082"
       x="-0.081862018"
       y="-0.09480539"
       width="1.1637239"
       height="1.1896108"><feGaussianBlur
         stdDeviation="5"
         result="fbSourceGraphic"
         id="feGaussianBlur22074" /><feGaussianBlur
         stdDeviation="0.01"
         in="SourceGraphic"
         result="result1"
         id="feGaussianBlur22076" /><feComposite
         in2="result1"
         operator="arithmetic"
         in="fbSourceGraphic"
         k2="0.5"
         k3="0.5"
         result="result2"
         id="feComposite22078"
         k1="0"
         k4="0" /><feBlend
         in2="fbSourceGraphic"
         mode="normal"
         result="result3"
         id="feBlend22080" /></filter><filter
       style="color-interpolation-filters:sRGB"
       inkscape:label="Blur"
       id="filter25697"
       x="-0.021174108"
       y="-0.020991294"
       width="1.0423482"
       height="1.0419826"><feGaussianBlur
         stdDeviation="0.78 0.78"
         result="blur"
         id="feGaussianBlur25695" /></filter><filter
       style="color-interpolation-filters:sRGB"
       inkscape:label="Blur"
       id="filter26395"
       x="-0.012744985"
       y="-0.014760121"
       width="1.02549"
       height="1.0295202"><feGaussianBlur
         stdDeviation="0.78 0.78"
         result="blur"
         id="feGaussianBlur26393" /></filter><linearGradient
       inkscape:collect="always"
       xlink:href="#linearGradient35726"
       id="linearGradient35728"
       x1="55.021229"
       y1="40.952602"
       x2="108.60487"
       y2="83.937462"
       gradientUnits="userSpaceOnUse" /></defs><g
     inkscape:label="Layer 1"
     inkscape:groupmode="layer"
     id="layer1"
     transform="translate(235.16055)"><g
       id="g20061"
       transform="matrix(1,0,0,2.1213393,-205.76643,-111.01427)"><rect
         style="fill:#7966a0;fill-opacity:1;stroke:none;stroke-width:0.806063;stroke-linecap:square;stroke-miterlimit:36.2;stroke-dasharray:none;stroke-dashoffset:42.8939;stroke-opacity:1;paint-order:markers fill stroke"
         id="rect18061"
         width="235.16055"
         height="78.57653"
         x="-29.394121"
         y="52.332161" /><rect
         style="fill:url(#linearGradient19996);fill-opacity:1;stroke:none;stroke-width:1.18757;stroke-linecap:square;stroke-miterlimit:36.2;stroke-dasharray:none;stroke-dashoffset:42.8939;stroke-opacity:1;paint-order:markers fill stroke"
         id="rect18039"
         width="235.16055"
         height="78.576538"
         x="-29.394121"
         y="52.332161" /><rect
         style="fill:url(#linearGradient20056);fill-opacity:1;stroke:none;stroke-width:1.18757;stroke-linecap:square;stroke-miterlimit:36.2;stroke-dasharray:none;stroke-dashoffset:42.8939;stroke-opacity:1;paint-order:markers fill stroke"
         id="rect20050"
         width="235.16055"
         height="78.576538"
         x="-29.394121"
         y="52.332161" /></g><g
       id="g243"
       transform="matrix(0.7060411,0,0,0.7060411,-205.15685,37.810898)"
       style="display:inline"><path
         id="rect24"
         style="display:inline;opacity:0.677956;fill:#332847;fill-opacity:1;filter:url(#filter25697)"
         d="m 198.74121,24.469083 c -3.90014,0 -7.03959,3.139441 -7.03959,7.039589 v 23.470421 c 0,3.900148 3.13945,7.039589 7.03959,7.039589 3.90015,0 7.04032,-3.139441 7.04032,-7.039589 V 31.508672 c 0,-3.900148 -3.14017,-7.039589 -7.04032,-7.039589 z m -37.51959,36.800114 c -3.90015,0 -7.03959,3.140169 -7.03959,7.040322 0,3.900152 3.13944,7.040321 7.03959,7.040321 h 23.47042 c 3.90015,0 7.03959,-3.140169 7.03959,-7.040321 0,-3.900153 -3.13944,-7.040322 -7.03959,-7.040322 z m 50.86026,0 c -3.90015,0 -7.04032,3.140169 -7.04032,7.040322 0,3.900152 3.14017,7.040321 7.04032,7.040321 h 23.46969 c 3.90015,0 7.04032,-3.140169 7.04032,-7.040321 0,-3.900153 -3.14017,-7.040322 -7.04032,-7.040322 z m -13.34067,14.830127 c -3.90015,0 -7.03959,3.139436 -7.03959,7.039589 v 23.470407 c 0,3.90014 3.13944,7.03959 7.03959,7.03959 3.90015,0 7.04032,-3.13945 7.04032,-7.03959 V 83.138913 c 0,-3.900153 -3.14017,-7.039589 -7.04032,-7.039589 z" /><g
         id="g22098"
         style="display:inline"><path
           id="path22090"
           style="display:inline;fill:url(#logoPlus_svg__a)"
           d="m 198.74142,21.471135 c -3.90015,0 -7.03959,3.139438 -7.03959,7.03959 v 23.47042 c 0,3.900152 3.13944,7.039589 7.03959,7.039589 3.90015,0 7.04032,-3.139437 7.04032,-7.039589 v -23.47042 c 0,-3.900152 -3.14017,-7.03959 -7.04032,-7.03959 z" /><path
           id="path22092"
           style="display:inline;fill:url(#logoPlus_svg__b)"
           d="m 198.74142,73.101376 c -3.90016,0 -7.03959,3.139433 -7.03959,7.03959 v 23.470424 c 0,3.90015 3.13943,7.03959 7.03959,7.03959 3.90015,0 7.04032,-3.13944 7.04032,-7.03959 V 80.140966 c 0,-3.900157 -3.14017,-7.03959 -7.04032,-7.03959 z" /><path
           id="path22094"
           style="display:inline;fill:url(#logoPlus_svg__c)"
           d="m -58.27125,161.22183 c 0,-3.90016 -3.140165,-7.03959 -7.040321,-7.03959 -3.900156,0 -7.040321,3.13943 -7.040321,7.03959 v 23.47042 c 0,3.90015 3.140165,7.03959 7.040321,7.03959 3.900156,0 7.040321,-3.13944 7.040321,-7.03959 z"
           transform="rotate(-90)" /><path
           id="path22096"
           style="display:inline;fill:url(#logoPlus_svg__d)"
           d="m 212.08209,58.27125 c -3.90016,0 -7.04032,3.140165 -7.04032,7.040321 0,3.900156 3.14016,7.040321 7.04032,7.040321 h 23.46969 c 3.90015,0 7.04032,-3.140165 7.04032,-7.040321 0,-3.900156 -3.14017,-7.040321 -7.04032,-7.040321 z" /></g><path
         id="path20069"
         style="color:#000000;display:inline;opacity:0.677956;fill:#372b4a;fill-opacity:1;stroke-width:0.999603;stroke-dasharray:none;filter:url(#filter26395)"
         d="m 98.838243,4.074172 c -22.314343,0 -40.485688,17.70399 -41.568561,39.876366 h 9.341472 c 0.489485,-7.946979 3.724086,-15.372891 9.353914,-21.032401 l 0.316189,-0.316189 h 0.07832 c 6.085547,-5.923645 14.076652,-9.219241 22.568697,-9.219241 8.660856,0 16.823766,3.395928 22.950746,9.533234 v 0.0022 h 0.003 c 6.12704,6.147709 9.50323,14.330447 9.50323,23.018827 0,6.345721 -1.81868,12.504685 -5.27274,17.799518 l -0.002,0.0015 -30.514379,46.394814 h 49.430079 l -3.967,-8.59783 h -29.32576 l 2.19941,-3.205066 c 0.0969,-0.145301 0.26428,-0.383453 0.67556,-0.982235 0.41127,-0.59878 0.99442,-1.452951 1.7083,-2.496573 1.42774,-2.087242 3.37018,-4.93457 5.46084,-8.034266 4.18129,-6.199391 8.96625,-13.417429 11.3945,-17.489185 l 0.003,-0.0015 c 4.76668,-7.977299 6.93112,-15.138122 7.10766,-23.420651 0.0445,-2.302756 -0.81714,-8.203293 -0.82414,-8.250913 C 135.57038,18.189431 118.487,4.074172 98.838243,4.074172 Z M 22.70265,6.5744045 18.023497,15.989799 H 40.963276 V 122.94572 H 28.198623 V 28.874487 H 11.622872 L 7.7341913,36.700888 H 19.6425 V 130.89069 H 49.509885 V 14.367137 c 0,-4.308611 -3.471397,-7.7927325 -7.754673,-7.7927325 z M 98.928269,26.214696 v 7.32e-4 c -5.36649,0 -10.375694,2.036107 -14.134804,5.747754 -3.286782,3.242959 -5.205768,7.442838 -5.671634,11.997603 h 9.323906 c 0.983344,-4.82778 5.161405,-8.439017 10.392506,-8.439017 0.186873,0 0.414149,-5.41e-4 0.669706,0.02123 h 0.0029 c 5.618961,0.322411 10.063131,4.92128 10.063131,10.474481 0,2.03994 -0.57505,4.038773 -1.66146,5.760196 -0.0684,0.112559 -35.243586,53.020115 -52.595623,79.124725 h 99.298593 l -3.66911,-7.9479 H 71.576487 l 42.896983,-64.331194 0.0564,-0.07831 c 2.18035,-3.071886 3.48305,-5.990252 4.05043,-8.978441 l 0.002,-0.01171 0.0264,-0.115643 c 0.19894,-1.11787 0.30447,-2.276149 0.30447,-3.431232 0,-5.350737 -2.07195,-10.322731 -5.84949,-14.043314 v -0.0015 c -3.75911,-3.711647 -8.7683,-5.748486 -14.134789,-5.748486 z" /><path
         id="path25699"
         style="color:#000000;display:inline;fill:url(#linearGradient6025);fill-opacity:1;stroke-width:0.999603;stroke-dasharray:none"
         d="m 96.589791,1.0762352 c -22.314343,0 -40.485688,17.7039908 -41.568561,39.8763668 h 9.341472 c 0.489485,-7.946979 3.724086,-15.372891 9.353914,-21.032401 l 0.316189,-0.316189 h 0.07832 c 6.085547,-5.923645 14.076652,-9.219241 22.568697,-9.219241 8.660868,0 16.823778,3.395928 22.950758,9.533234 v 0.0022 h 0.003 c 6.12704,6.147709 9.50323,14.330447 9.50323,23.018827 0,6.345721 -1.81868,12.504685 -5.27274,17.799518 l -0.002,0.0015 -30.514391,46.39483 h 49.430091 l -3.967,-8.597843 h -29.32576 l 2.19941,-3.205069 c 0.0969,-0.145301 0.26428,-0.383453 0.67556,-0.982235 0.41127,-0.59878 0.99442,-1.452951 1.7083,-2.496573 1.42774,-2.087242 3.37018,-4.93457 5.46084,-8.034266 4.18129,-6.199391 8.96625,-13.417429 11.3945,-17.489185 l 0.003,-0.0015 c 4.76668,-7.977299 6.93112,-15.138122 7.10766,-23.420651 0.0445,-2.302756 -0.81714,-8.203293 -0.82414,-8.250913 C 133.32194,15.191495 116.23856,1.0762352 96.589791,1.0762352 Z M 20.454198,3.5764677 15.775045,12.991863 H 38.714824 V 119.9478 H 25.950171 V 25.876551 H 9.37442 L 5.4857387,33.702952 H 17.394048 V 127.89277 H 47.261433 V 11.369201 c 0,-4.3086119 -3.471397,-7.7927333 -7.754673,-7.7927333 z M 96.679817,23.21676 v 7.32e-4 c -5.36649,0 -10.375694,2.036107 -14.134804,5.747754 -3.286782,3.242959 -5.205768,7.442838 -5.671634,11.997603 h 9.323906 c 0.983344,-4.82778 5.161405,-8.439017 10.392506,-8.439017 0.186873,0 0.414149,-5.41e-4 0.669706,0.02123 h 0.0029 c 5.618973,0.322411 10.063143,4.92128 10.063143,10.474481 0,2.03994 -0.57505,4.038773 -1.66146,5.760196 -0.0684,0.112559 -35.243598,53.020131 -52.595635,79.124741 h 99.298605 l -3.66911,-7.9479 H 69.328035 l 42.896995,-64.33121 0.0564,-0.07831 c 2.18035,-3.071886 3.48305,-5.990252 4.05043,-8.978441 l 0.002,-0.01171 0.0264,-0.115643 c 0.19894,-1.11787 0.30447,-2.276149 0.30447,-3.431232 0,-5.350737 -2.07195,-10.322731 -5.84949,-14.043314 v -0.0015 c -3.75911,-3.711647 -8.7683,-5.748486 -14.134801,-5.748486 z" /><path
         id="path26397"
         style="color:#000000;display:inline;fill:url(#linearGradient35728);fill-opacity:1;stroke-width:0.999603;stroke-dasharray:none"
         d="m 96.589791,1.0762352 c -22.314343,0 -40.485688,17.7039908 -41.568561,39.8763668 h 9.341472 c 0.489485,-7.946979 3.724086,-15.372891 9.353914,-21.032401 l 0.316189,-0.316189 h 0.07832 c 6.085547,-5.923645 14.076652,-9.219241 22.568697,-9.219241 8.660868,0 16.823778,3.395928 22.950758,9.533234 v 0.0022 h 0.003 c 6.12704,6.147709 9.50323,14.330447 9.50323,23.018827 0,6.345721 -1.81868,12.504685 -5.27274,17.799518 l -0.002,0.0015 -30.514391,46.39483 h 49.430091 l -3.967,-8.597843 h -29.32576 l 2.19941,-3.205069 c 0.0969,-0.145301 0.26428,-0.383453 0.67556,-0.982235 0.41127,-0.59878 0.99442,-1.452951 1.7083,-2.496573 1.42774,-2.087242 3.37018,-4.93457 5.46084,-8.034266 4.18129,-6.199391 8.96625,-13.417429 11.3945,-17.489185 l 0.003,-0.0015 c 4.76668,-7.977299 6.93112,-15.138122 7.10766,-23.420651 0.0445,-2.302756 -0.81714,-8.203293 -0.82414,-8.250913 C 133.32194,15.191495 116.23856,1.0762352 96.589791,1.0762352 Z M 20.454198,3.5764677 15.775045,12.991863 H 38.714824 V 119.9478 H 25.950171 V 25.876551 H 9.37442 L 5.4857387,33.702952 H 17.394048 V 127.89277 H 47.261433 V 11.369201 c 0,-4.3086119 -3.471397,-7.7927333 -7.754673,-7.7927333 z M 96.679817,23.21676 v 7.32e-4 c -5.36649,0 -10.375694,2.036107 -14.134804,5.747754 -3.286782,3.242959 -5.205768,7.442838 -5.671634,11.997603 h 9.323906 c 0.983344,-4.82778 5.161405,-8.439017 10.392506,-8.439017 0.186873,0 0.414149,-5.41e-4 0.669706,0.02123 h 0.0029 c 5.618973,0.322411 10.063143,4.92128 10.063143,10.474481 0,2.03994 -0.57505,4.038773 -1.66146,5.760196 -0.0684,0.112559 -35.243598,53.020131 -52.595635,79.124741 h 99.298605 l -3.66911,-7.9479 H 69.328035 l 42.896995,-64.33121 0.0564,-0.07831 c 2.18035,-3.071886 3.48305,-5.990252 4.05043,-8.978441 l 0.002,-0.01171 0.0264,-0.115643 c 0.19894,-1.11787 0.30447,-2.276149 0.30447,-3.431232 0,-5.350737 -2.07195,-10.322731 -5.84949,-14.043314 v -0.0015 c -3.75911,-3.711647 -8.7683,-5.748486 -14.134801,-5.748486 z" /></g></g></svg>
