<?xml version="1.0" encoding="UTF-8" standalone="no"?>
<!-- Created with Inkscape (http://www.inkscape.org/) -->

<svg
   xmlns:dc="http://purl.org/dc/elements/1.1/"
   xmlns:cc="http://creativecommons.org/ns#"
   xmlns:rdf="http://www.w3.org/1999/02/22-rdf-syntax-ns#"
   xmlns:svg="http://www.w3.org/2000/svg"
   xmlns="http://www.w3.org/2000/svg"
   xmlns:sodipodi="http://sodipodi.sourceforge.net/DTD/sodipodi-0.dtd"
   xmlns:inkscape="http://www.inkscape.org/namespaces/inkscape"
   version="1.1"
   id="svg2"
   xml:space="preserve"
   width="450"
   height="140"
   viewBox="0 0 450 140"
   sodipodi:docname="yes+.svg"
   inkscape:version="0.92.5 (2060ec1f9f, 2020-04-08)"><metadata
     id="metadata8"><rdf:RDF><cc:Work
         rdf:about=""><dc:format>image/svg+xml</dc:format><dc:type
           rdf:resource="http://purl.org/dc/dcmitype/StillImage" /><dc:title></dc:title></cc:Work></rdf:RDF></metadata><defs
     id="defs6" /><sodipodi:namedview
     pagecolor="#ffffff"
     bordercolor="#666666"
     borderopacity="1"
     objecttolerance="10"
     gridtolerance="10"
     guidetolerance="10"
     inkscape:pageopacity="0"
     inkscape:pageshadow="2"
     inkscape:window-width="1366"
     inkscape:window-height="705"
     id="namedview4"
     showgrid="false"
     inkscape:zoom="1.189304"
     inkscape:cx="112.72306"
     inkscape:cy="134.62788"
     inkscape:window-x="-8"
     inkscape:window-y="-8"
     inkscape:window-maximized="1"
     inkscape:current-layer="g10" /><g
     id="g10"
     inkscape:groupmode="layer"
     inkscape:label="yesplus_guide"
     transform="matrix(1.3333333,0,0,-1.3333333,0,139.99998)"><path
       inkscape:connector-curvature="0"
       id="path268"
       style="fill:#393536;fill-opacity:1;fill-rule:nonzero;stroke:none;stroke-width:3.30612683"
       d="M 327.98762,70.111733 H 293.65349 V 104.44586 H 280.58768 V 70.111733 H 246.25355 V 57.042614 h 34.33413 V 22.708487 h 13.06581 v 34.334127 h 34.33413 z M 227.23341,63.439969 c -0.70421,0.667838 -1.47784,1.299308 -2.29776,1.910941 -0.0794,0.05951 -0.15208,0.125633 -0.23143,0.185144 -0.19837,0.142163 -0.39012,0.284326 -0.5918,0.423184 -0.0463,0.03306 -0.0992,0.06943 -0.14877,0.10249 -3.28629,2.251472 -7.32969,4.059923 -11.88222,5.273272 l -0.13886,0.02976 c -0.56204,0.148776 -1.11417,0.281021 -1.6729,0.416572 -1.49768,0.370286 -2.97882,0.720736 -4.4269,1.048042 -0.27441,0.06282 -0.55213,0.125633 -0.82654,0.188449 -0.0331,0.0066 -0.0661,0.01653 -0.0959,0.02314 -8.01075,1.811758 -14.33206,3.243311 -14.33206,7.005683 0,3.06478 3.2962,5.537762 8.01074,6.013845 5.15095,0.502531 9.98781,-1.064573 14.82467,-4.817027 0.70421,-0.648001 2.41017,-2.251472 3.10115,-3.005269 0.003,-0.0033 0.007,-0.0066 0.01,-0.0066 0.0628,-0.06612 0.14878,-0.105796 0.24465,-0.105796 0.0628,0 0.11572,0.01984 0.16862,0.04959 l 0.01,0.0033 11.09867,8.724869 1.76217,1.381961 0.99183,0.780246 c 0,0 0,0.0033 0.003,0.0099 0.0926,0.0562 0.1587,0.158694 0.1587,0.277715 0,0.07273 -0.0298,0.138857 -0.0727,0.195061 v 0.0066 c -0.003,0.0066 -0.01,0.0099 -0.01,0.01653 -0.01,0.0099 -0.0165,0.01984 -0.0265,0.02645 -0.95877,1.190206 -2.14567,2.43331 -3.08792,3.411923 -0.35376,0.370286 -0.67445,0.700899 -0.92241,0.968695 -2.64821,2.945759 -6.01715,5.36915 -9.83903,7.184221 -1.15053,0.54551 -2.33743,1.04143 -3.56401,1.47122 -4.13927,1.4547 -8.66536,2.23825 -13.30716,2.23825 -0.17192,0 -0.34383,-0.003 -0.51245,-0.0132 -0.12894,-0.003 -0.25787,-0.007 -0.38681,-0.007 -0.5389,-0.007 -1.06788,-0.0198 -1.59025,-0.043 l -0.11241,-0.003 c -0.5389,-0.0264 -1.0811,-0.076 -1.62,-0.11902 -9.77291,-1.14392 -18.05807,-5.908055 -22.62052,-12.513696 -1.4547,-2.102697 -2.5358,-4.393842 -3.16066,-6.817233 -0.19175,-0.862899 -0.34384,-1.745635 -0.45624,-2.648208 -0.01,-0.06612 -0.0198,-0.128939 -0.0298,-0.198367 -0.007,-0.05951 -0.01,-0.119021 -0.0198,-0.181837 -0.11571,-0.780246 -0.19175,-1.573717 -0.19175,-2.377106 0,-1.970451 0.35375,-3.884699 1.01829,-5.719599 0.94224,-2.605228 2.52257,-5.048456 4.61204,-7.253642 3.38878,-3.580536 8.13308,-6.532907 13.7568,-8.529807 l 2.54902,-0.800083 c 1.35221,-0.40996 6.41058,-1.471226 8.54303,-2.000207 2.99866,-0.740572 5.79234,-1.586941 8.07026,-2.512656 3.25984,-1.322451 5.42866,-2.955677 5.42866,-5.491477 0,-0.555429 -0.11241,-1.094328 -0.324,-1.606777 -0.12564,-0.297552 -0.23804,-0.568654 -0.4298,-0.849675 -0.0959,-0.168612 -0.2149,-0.330613 -0.34384,-0.489307 -0.47938,-0.773633 -1.32906,-1.434859 -2.38041,-1.93739 l 0.13886,0.06282 c -3.21686,-1.623308 -8.02066,-2.324207 -13.24104,-1.662981 -2.83004,0.357061 -5.43858,1.071185 -7.67021,2.026655 -2.87633,1.12739 -5.98409,3.180494 -8.80422,5.990702 -0.17192,0.171919 -0.34053,0.347143 -0.50914,0.522368 -0.0595,0.06612 -0.14216,0.109102 -0.23804,0.109102 -0.0794,0 -0.15208,-0.03306 -0.20829,-0.08265 h -0.003 l -10.79451,-8.486827 -2.51927,-1.98037 -0.1091,-0.08596 -0.01,-0.0099 -0.003,-0.0066 c -0.0959,-0.05951 -0.162,-0.162 -0.162,-0.281021 0,-0.07935 0.0331,-0.152082 0.0793,-0.208286 l 0.007,-0.01322 c 0.41326,-0.525674 0.84636,-1.038123 1.28608,-1.540655 3.63343,-4.188862 8.00413,-7.580948 12.8443,-10.050625 5.50801,-2.813514 11.61773,-4.426904 17.95227,-4.598822 0.30086,-0.0066 0.5951,-0.01322 0.89596,-0.01653 0.17192,-0.0033 0.34714,-0.0033 0.51576,-0.0033 13.60801,0.03306 25.39766,5.577436 31.28587,13.684059 2.54903,3.511106 3.99711,7.494989 3.99711,11.730138 0,5.871681 -2.77715,11.277198 -7.43878,15.581775 m -93.80805,39.696665 c -2.09608,0.65792 -4.25498,1.14723 -6.46017,1.44809 -1.782,0.24465 -3.59045,0.38351 -5.41874,0.38351 -22.084927,0 -40.053726,-18.130806 -40.053726,-40.4141 0,-5.8816 1.296002,-11.521852 3.590454,-16.649655 1.269553,-2.83335 2.849881,-5.508007 4.688088,-7.98099 4.18225,-5.739436 9.829115,-10.344871 16.395084,-13.270793 0.13555,-0.06282 0.27441,-0.128939 0.41326,-0.185143 0.21821,-0.09918 0.43972,-0.191755 0.66123,-0.281021 4.71123,-1.973757 9.82911,-3.071391 15.14867,-3.071391 0.0694,0 0.13225,0.0033 0.19837,0.0033 0.0727,0 0.14216,-0.0033 0.2149,-0.0033 8.46368,0 16.32565,2.56886 22.84533,6.969315 3.46813,2.344044 6.54944,5.210456 9.14475,8.480215 v 0 c 0.0364,0.03637 0.0562,0.08596 0.0562,0.138857 0,0.07274 -0.0397,0.138858 -0.0992,0.171919 L 141.10219,49.47489 c -0.0628,0.06943 -0.14878,0.112408 -0.24796,0.112408 -0.0992,0 -0.18514,-0.04298 -0.24796,-0.112408 h -0.003 c -1.15054,-1.008369 -6.45356,-5.312946 -13.8659,-6.23205 -0.89265,-0.08265 -1.82829,-0.142163 -2.82013,-0.171918 -3.1871,0.0033 -5.91135,0.479388 -8.23886,1.253022 -3.92107,1.45139 -7.70328,4.089679 -10.26883,7.663602 -1.35882,1.967145 -2.08617,3.735923 -2.41348,4.681475 -0.0793,0.234735 -0.15539,0.472777 -0.22481,0.71743 h 56.65709 c 0.15208,0 0.28763,0.109102 0.31078,0.261184 2.13245,12.801323 -0.83645,24.746359 -8.3612,33.629922 -4.77074,5.627028 -11.00609,9.686953 -17.95227,11.859073 M 103.97439,74.5188 c 3.56731,6.499845 10.2556,10.774667 17.57206,10.774667 7.32307,0 14.01467,-4.274822 17.57868,-10.774667 z m -26.597794,28.08885 h -0.0033 l -19.939251,0.0264 c 0,0 -0.0099,0 -0.01322,0 -0.261184,0 -0.472776,-0.18845 -0.51245,-0.43971 v 0 C 53.879953,83.809016 49.876234,69.195936 44.675696,57.535227 43.171408,54.162977 41.528263,50.975871 39.789241,48.066479 l -0.611634,-1.018287 -0.628164,1.008369 c -2.65482,4.264904 -5.084823,8.883563 -7.217275,13.730345 -1.712573,3.884699 -3.249922,7.947929 -4.569067,12.080587 -2.8598,8.949685 -4.777353,18.398596 -5.709681,28.105387 l -0.0033,0.003 c -0.04298,0.37029 -0.350449,0.65792 -0.730654,0.65792 H 1.1802919 c -0.40665355,0 -0.73726623,-0.33061 -0.73726623,-0.73726 0,-0.0595 0.009918,-0.11902 0.0231429,-0.17192 0.19175535,-2.274618 0.43640874,-4.562458 0.72734793,-6.820542 2.790371,-21.74109 9.9845025,-42.163035 20.8021495,-59.060649 0.919104,-1.428247 2.684575,-4.043393 2.770535,-4.16572 l 0.38351,-0.568654 -0.538898,-0.416572 C 18.477947,25.945185 11.647489,22.68865 4.3078879,21.012444 L 4.1128264,20.966158 C 2.796988,20.671913 1.4513943,20.427259 0.09257623,20.235504 v 0 C 0.0396782,20.225586 4.6791999e-6,20.182606 4.6791999e-6,20.126402 V 0.17392667 c 0,-0.07934704 0.0595102808,-0.14216345 0.1355512008001,-0.14216345 H 0.138862 C 11.852469,0.81200915 22.97428,4.6438101 32.330619,11.130431 c 0.796776,0.51245 1.491063,0.978613 2.139064,1.431553 1.124083,0.790164 2.274615,1.659675 3.514412,2.65482 5.418742,4.350862 10.410994,9.706788 14.837898,15.922306 12.027689,16.877778 20.458312,40.711646 25.063747,70.86022 v 0 c 0.0033,0.0297 0.0066,0.0595 0.0066,0.0893 0,0.28763 -0.231429,0.51906 -0.515756,0.51906" /><path
       inkscape:connector-curvature="0"
       id="path272"
       style="fill:#4dc5ea;fill-opacity:1;fill-rule:nonzero;stroke:none;stroke-width:3.30612683"
       d="m 337.50001,31.920017 c 0,-5.226986 -4.23845,-9.468747 -9.46875,-9.468747 -5.22698,0 -9.46544,4.241761 -9.46544,9.468747 0,5.226986 4.23846,9.468747 9.46544,9.468747 5.2303,0 9.46875,-4.241761 9.46875,-9.468747" /></g></svg>